/* XPM */
static char *_5489_7ef223232cfae1e6c0088e79b281113513e99e9678e22008e43fe27b05bf6d86[] = {
/* columns rows colors chars-per-pixel */
"75 75 4 1 ",
"  c #35312E",
". c #3C2D33",
"X c #402F35",
"o c #423C37",
/* pixels */
"XXXXXXXXXXXX..XXXXX.XXXXX..XXo XXXXXXX....XXXXXXXXXXX  X..XXXXXXXXXXXXXXXXX",
"XXXXXXXXXXXX.XXXXXX.XXXX..XXXXXXXXXXXX.....XXXXX.XXX   X.XXXoXXXXXXXXXXXXXX",
"XXXXXXXXXXXXXXXXXXX   XXXXXXXXXX.XXXXXXXX.XXXX...XXX   XXXXX XXXXXXXX.XXXXX",
"XXX..XXXXXXXXXooXXXX  o   XXXXXXXXXXXXXXXXXXX...XXXX  oXXXXXXXXXX   XXXXXXX",
"X.....XXXXXXXXooXXXXX     XXXXXXXXXXX XXXXXX...XXXXXX   XXXXXX.XX    XXXXXX",
"X.X.X.XXXXXXX  XXXXXXX   XXXXXX  XXXX   XXX....XXXXXXX  XXXXXXXXXX     XXXX",
"XooXXXXXXXX    XXXXXXXXXXXXXXXX   XXX   XXX..XXXXXXXXXX ..X.XXXXXXXX     XX",
"XooXXXXXXX    .XXXXXXXXXXXXXXXX   XXX   XXXX.XXXXXXXXXXXXXX.XXXXXXXXXX o  X",
" XXXXXXXXX   XXXXXXXXXXXXXXXXXXX   XXXX  XXX..XXXXXXXXXXXXXXXXXXXXXXXXXXXXX",
"XXXXXXXXXXXXX XXXXXXXXX..XXXXX.XX  XXXX  XXX..XXXXXXXXXXXXXXXXXX    XXXXXXX",
"XXXXXXXXXXXXXXXXXXXXXX..XXXXXXXXX   XXXXXXXXX.XXXXXXXooXXXX...XXX   XXXXXXX",
"XXXXXXXXXXXXXXXXXXXX....XXXXXXXXXX oXXXXXXXXXXXXXX.  ooXXXX...XXX     XXXXX",
"XXXXX.XXX XXXXX...XX...XXXXXX...XXXXXXXXXX...XXX X   XXXX.....XXXXXX  XXXX.",
"XXX...XXX XXX.XX......XXXX.XXXXXXXXXXXXXX...XXXXX   XXXX..XX...XXXXXXXXXX..",
"XX...XXXX X...XXXXX..XXXXXXXXXXXXXXoXXXX....XXXXX   XXXXXXXXX.XXXXXXXXXX...",
"XX..XXXXXX ...XXXXXXXXXX.XXXXXXXXXXXXXXX.X XXXXXX  XXXXXXXXXXXXXX..XXXXX...",
"X...XXXXXXX..XXXXXXXXXX...X XXXXXX  XXXXXXX   XXXXXXXXXXXXX.XXXX......XX.XX",
"X..XXXXXXX..XXXX  XXXXXX...XXXXX    XXXXXXXXXXXXXXXXXXXXXXXXXXX...XX...XXXX",
"..XXXXXXXXXXXXXX     XXX...XXXX    XX XXXXXXXXXXXXXXXXXXXXXXXX....XXXXXXXXX",
".XXXXXXXXXXXXXXXXX   XXX...XXXX   XXXXXXXXXXXXXXXXXXXXXXXXXXXX..XXXXXXXXXXX",
"XXXXXXX XXXXXXXXXX    XXXXXXXXXXXX XXXXXXXXX..XXXXXX..XXXXXXX..XXXXXXXXX XX",
"XXXXXXXXXXXXXXXXXXXXXXXXXXXXXXXXXXXXXXXXXXX..XXXXXXXX..XXXXXXXXXXXXXXXXXX  ",
"XXXXXXXX  XoXXo XXXXXXXXXX.XXXXXXXXXXXXXX....XXXXXXX...XXXXXXXXXXXXXXXX.   ",
"..XXX X   XXXX    XXXXXXXX.XXXXXXXXXXXXX....XXXXXXooX.XXXXXXXXXXXXXXXXX    ",
".XXXXX   XXXXXX     XXXXXXXXXXXXXX.XXXX...XXXXXXXXoo..XXXXXXX   XXXXXXX  XX",
".XXXXX   XXXXXXXX    XX.XXXXXXXX...XXX..XXXXXXXXX XXXXXXXXXX     XXXXXooXXX",
"XXXXXX  XXXXX.XXXX   XXXXXXXXX ....XXXXXXXXX..XXX  XXXXXX.XX   o  XXXXooXXX",
"XXXXXXXXXXXXX.XX.XXXXXXXX XXXX ...XXXXXXXXXX...XXXXXXXXXXXXXXXXX   XXXXXXXX",
"XXXXXXXXXXXXX.XXXXXXXXXXXoXXXX  .XXXXXXXXXXXX...XXXXXXXXXXXX..XXXX.XXXXXXXX",
"XXXXXXXXXXXXXXXXXXXXXXXXXXXXXX  XXXX  XX  XXX....XXXX..XXXX..XXXXX.XXXXXXXX",
"XXXXXXXXX XXXXXXXXXXXXXXXX..XXXXXXXXXXXXXXXXXXXXXXXX XXXXX....XXXXXXXXXXXXX",
"XXXXXXXXXXXXXXXXXXXXXXXXXX...XXXXXXXXXXXXXXXXXXXXXXXXXXXX..X.XXXXXX XXXXXXX",
"XXXXXXXXXXXXXXXXX..XXXXXXXXX...XXXXXXXXXXXXXXXXXXXXXXXXX..XX..XXXXXXXXXXXXX",
"XXXXXXXXXXX..XXXX.XX  XXXX XX..XXXXXX.XXXXXXXXXXXXXXXXXX..XXX.XXXXXXXXXXXXX",
"XXXXXXXXXXoX.XXXXXXX  oXXX XXXXXXXXXXXX   XXXXXXX  XXXXX..XXXXXXXX..XXXXXXX",
"XXXXXXXXXXXXXXXXXXXXX XXXXXXXXXXXXXXXX    XXXXXXX   XXXXXXXXXXXXXX..XXXX.XX",
"XXXXXXXXXXXXXXXXXXXXXXXXooXXXXXXXXXX     XX.XXXXX   XXXXXXXXXXXXXX.X  XXXXX",
"X.XXXXXXX   XXXXXXXXXXXXoo.XXXXXXX     XXX...XXX X   XXXXXXXXXXXX..X  XXXXX",
"X..X..XXX   XXX XXXXXXXXXXXXXXXXX  o XXXXXXXXXXXXXX  XoXXXXXXXXXXXX  XXXXXX",
"XX.....XXXX XX   XXXXXXXXXXXXXXXXXXXXXXXXXXXXXXXXXXXXXXXXXXXXXXXXX   XXXXXX",
"XX.....XXXXXXX  XXX   XXXXXXXXXXXXXXXXX  XXXXXXXXX XXXXXXXXXXXXXXXX XXXXXXX",
".......XXXXXXXXXXXXXX     XXXXXXXXXXXXX  XX.XXXXXXXXXXXXXXXX..XXXXXXXXX...X",
"...XX..XXXXXXXXXXXXXXX    XXXXXXXXXXX    XX..XXXXXXXXXXXXXXX.XXXXXXXXXX..XX",
"...XXXXXXXX  XXXX..XXXXXX  XXXX..XXXX  XXXXX..XXXXXXXXX XXXXXXXXXXXX XXXXXX",
"..XXXXXXXXX   XXX..XXXXXXXXXXXX...XXXXXXXXXX...XXXXXXX  XXXXX  XXXXX XXXXXX",
"..XXXXoXXXXX  XXX.XXXXXXX..XXXX....XXXXXX.XXX..XXXXXX   XXXXX   XXXX  XXXXX",
"XXXXXXX XXXXXX.XXXXXXXXXXXXXXXXX...XXXXX...XX...XXXX   XXXXXXXoXXXXXX  XXXX",
"XXXXXXXXXXXXXX.XXX XXXXXXX ..XXXXX.XX......XXX...XXX   XXXXXXXXXXXXXX  XXXX",
"XXXXXX.XXXXXXX.XXoXXXXX    ..XXXXXXX...XX...XXXX.XXX   XXXXXXXXXooXXX  XXXX",
".XXXXX..XXXXXXXXXXXXXX    X.XXXXXXXXXXXXX....XXXXXXXX  XXXX  XXXXXX.XXXXX..",
"XXXXXX..XXXXXXXXXXXXXX  XXXXXXXXXXXXXXXXXXX..XXXXXXXXXXXXXX  XXXXX...XXXXXX",
"XXXXXXXXXXX   XXXXXXXXXXXXXXXXXXXX XXXXXXXXX..XXXXXXX XXXXXXXXXXXX...XXXXXX",
"X  XXXXXXX    XXX.XXXXXXXXXXXXX   XXXXXXXXXXXXXXXXXXXXXXXXXXXXXXXXX...XXXoX",
"X    XXX   XXXX...XXXXXXXXXXXXX    .XXXXXXXXXXXXXXXXXXX  XXXXXXXXXXXXXXXXX ",
".XX   XXXXXXXX....XXXX XXXXXXXXX    XXXXXXXXXXXXXXXXXXX  XXXXXXXXXXXXXXXXXX",
"...X XXXXXXXXXX..XXX   XXXXXXXXXXX  XXXXXXX   .X.XXXXXXX  XXXXXXX  XXXXXXXX",
"XX.XXXXXXXXXXoXXXXXX   XX.XXXXXXXXXooXXXXX    ...XXXXXXXX XXXXoXX  XXXXXXXX",
"XXXXXXXXXXXXXoXXXXXXXXXXXXXXXXXXXXXooXXXX     ..XXXXXXXXXXXXX.XXX   XXX  XX",
"XXXXXXXXXX XXXXXXXXXXXXXXXXXXXXXXXXXXXXX   XXXXXXXXXXXXXXXXXX..XXXXXXXX   X",
"XXXXXXXXX  oXXXXXXXXXoX.XXXXX...XXXXXXXX.XXXXXXXXXXXXXX.XXXXXXXXXXXXXXXX  X",
"XXXXXX.XX  XXXXXXXXXXX..X.XX....XXXXXXXX.XXXXXXXXXXXXXX..XXX..XXX.XXXXXX  X",
"XXXXXX..XXXXXX  XXXXXXXXX..X.XXXXXXXXXXXXXXXXXXXXXXXXXXX.....XXXXXXXXXXXX  ",
"XXXXXXXXXXXXXX  XXXXXXXXXX.XXXXXXXXXXXXXXXXXXXXXXXXXXXXXXXXXXXXXXXXXXXXXXXX",
"XXXXXXXXX  X.X XXXXX.XX  X.X.XXXXXXXXXXXXXXXXXXXXXXXXXXXXX...XXXXXXX XXXXXX",
"X.XXXXXX  XX.X   XXXooXXXXXX....XXXXXXXXXXXXXXXXXXXX  XXXX....XXXXX  XXXXXX",
"XXXXXXXX  XXXXX  XXXooXXXXXXX...XXXXXXXXXXXXXXXXXX   XXXX....XXXX   XXXXXXX",
"XXXXXXX   XXXXX  XXXXXXXXXXXXXXXXXXXXXXX   XXXXXXX  XXXX..XXXXXX   XXXXXXXX",
"X   XXX  XXXXXX  XXXXXXoXXXXXXXXXXXoXXXXX      XXXXXXXXXXXXXXXXX  XoXXXXXXX",
"X  XXXXXXXXXXXXX  XXXX   XXXXXXXXXXXXXXXXX     X XXXXXXXXXXXXXXXXXX XXXXXXX",
"X  XXXXXXXXXXXXXX XXXXX  XXXXXXXXX  XXXXXXX   XXXXXXXXXXXXXXXXXXXXXXXXXXXXX",
"XXXXXXXXXXXXXXXXX XXXXXXXXXXXXXX    XXXXXXXXXXXXXXXXXXXXXXXXXXXXXXXXXXXXXXX",
"XXXXXXXXXX XX..XXXXXXXXXX.XXXXX    XXXXXXXXXXXXXXXXXXXXXXXXXXXXXXXXXXXXXXX ",
"XXX...XXXoXX...XXXXXXXXX..XXXXX   XXXXXXXXXXXXXXXXXXXXXXXXXXXXXXXXXXXXXXXX ",
"XX...XXXXXXXXXXXXX XXXXXXXXXXXXXXX XXXXXXXXX..XXXXXX..XXXXXXXXXXXXXXXXX.XXX",
"XX...XXXXXXXXXXXX   XXXXXXXXXXXXXXXXXXXXXXX..XXXXXXXX..XXXXXXXXXXXXXXX...XX"
};
