/* XPM */
static char *ad2e591eb71a49beba29ca61d3b335d0LDWmBXrX9eyk3D1M[] = {
/* columns rows colors chars-per-pixel */
"75 75 131 2 ",
"   c None",
".  c #120B04",
"X  c #1A130D",
"o  c #1D1710",
"O  c #231A17",
"+  c #2A1F1E",
"@  c #2B201F",
"#  c #2C2120",
"$  c #312623",
"%  c #362929",
"&  c #3C2E2E",
"*  c #3D362D",
"=  c #3E2F30",
"-  c #3E3030",
";  c #433534",
":  c #463837",
">  c #463838",
",  c #4A3C3C",
"<  c #4E403F",
"1  c #4F4140",
"2  c #534443",
"3  c #574847",
"4  c #574948",
"5  c #5B4C4B",
"6  c #5F504E",
"7  c #60514F",
"8  c #62594C",
"9  c #645553",
"0  c #675856",
"q  c #685957",
"w  c #6C5C5A",
"e  c #6F605D",
"r  c #72625E",
"t  c #73695A",
"y  c #756661",
"u  c #776862",
"i  c #7B6C65",
"p  c #7E6F68",
"a  c #7D7363",
"s  c #7F7068",
"d  c #83746B",
"f  c #86786E",
"g  c #887A6F",
"h  c #8B7D71",
"j  c #8F8074",
"k  c #938477",
"l  c #948577",
"z  c #918275",
"x  c #948578",
"c  c #948678",
"v  c #958678",
"b  c #958778",
"n  c #958779",
"m  c #968779",
"M  c #968879",
"N  c #96887A",
"B  c #97887A",
"V  c #97897A",
"C  c #98897B",
"Z  c #988A7A",
"A  c #988A7B",
"S  c #998A7B",
"D  c #998B7B",
"F  c #9A8E7B",
"G  c #998B7C",
"H  c #9A8C7C",
"J  c #9A8C7D",
"K  c #9B8D7D",
"L  c #9C8D7D",
"P  c #9C8E7D",
"I  c #9C8E7E",
"U  c #9D8E7E",
"Y  c #9D8F7E",
"T  c #9D8F7F",
"R  c #9E8F7F",
"E  c #9E907F",
"W  c #9E9080",
"Q  c #9F9180",
"!  c #A09280",
"~  c #A09281",
"^  c #A19281",
"/  c #A19381",
"(  c #A19382",
")  c #A29382",
"_  c #A29482",
"`  c #A29483",
"'  c #A39483",
"]  c #A39583",
"[  c #A39683",
"{  c #A49683",
"}  c #A49684",
"|  c #A59784",
" . c #A59785",
".. c #A69885",
"X. c #A69985",
"o. c #A69886",
"O. c #A69986",
"+. c #A79986",
"@. c #A79987",
"#. c #A79A86",
"$. c #A89A86",
"%. c #A89A87",
"&. c #A89B87",
"*. c #A99B87",
"=. c #A99B88",
"-. c #A99C88",
";. c #AA9C88",
":. c #AA9C89",
">. c #AA9D89",
",. c #AB9D89",
"<. c #AB9E89",
"1. c #AB9D8A",
"2. c #AB9E8A",
"3. c #AC9E89",
"4. c #AC9E8A",
"5. c #AC9F8A",
"6. c #AD9F8A",
"7. c #AD9F8B",
"8. c #ADA08B",
"9. c #AEA08B",
"0. c #AEA08C",
"q. c #AFA18C",
"w. c #AFA18D",
"e. c #B0A28D",
"r. c #B1A38D",
"t. c #B1A38E",
"y. c #B2A48E",
"u. c #B2A48F",
"i. c #B3A58F",
"p. c #B3A590",
"a. c #B4A690",
/* pixels */
"      o o o o X o o o o o X o o X X o o o o X o o o o o X o o X o o X o o o o o o o o o o o X o o o o o o o o o o o o o o X o o o o o o o o X o       ",
"    * t a a a a a a a a a a a a d d d a a a d d a d a a a a d a a a a a d a a a a a a a s a a a a d a a a a a a a a i a a a a d s a a a a a a t *     ",
"  * 8 F <.+.<.7.8.7.<.+.*.8.8.<. . . . .$.8.X.E E E E E <.*.+.-.8.7.3.-.X.-.8.8.=.+.<.<.X.X.+.8.-.X.$.8.7.} } 7.*.+.7.7.8.X.E $.} *.<.7.-.8.8.E 8 *   ",
"o t F <.) h ' t.t.y.+.j U w.y.Q g d d g E $.j d j f f b *.{ h { e.y.y.+.z F r.8.) h } } g d k -.F z -.r.7.k Z <.n n 7.t.$.j d f f Z w.t.q.y.y.-.E t o ",
"o a <.) g u U w.w.y.} i k t.t.Z r w q e h h u i j j i u z g u U t.8.y.' i z e.r.Z u h h w 0 u k d d +.i.*.d d l i f 7.i.E a i g u h 7.t.w.w.} } -.a o ",
"o a +.h u u U t.t.y.{ s j -.<.l r y y y u u y k r.E b r u u u E t.t.t.{ s z -.3.n y r u u u u i r i ' 8.{ d w r e d { 8.E s j U s j 7.t.t.7.h f X.a o ",
"o a <.' h i U t.t.y.} i i g g i y h W U W k i n y.y.F t k h i U t.t.y.{ i i g g i w w i J Q U U d r d h f r q w w u f g d r i d y h 8.w.t.7.h d X.a o ",
"o a <.} h u h ) Q Q l u w r d i i W t.w.t.) i g E E j t l h u z E E ) b u q w w i d u h <.t.t.7.z r d i r d f f g i r i f f i w w f U ) Q U d d X.a o ",
"o a } h y y u i u i i w w u J k i W t.t.t.) i y i u u r u u e u i u i u u e e w h ) d f =.t.t.7.k i J j i U <.*.<.S i l <.*.k w r u i u u u r f +.a o ",
"o s } d i n F h y h j u w y f d i W u.t.t.) i g k u d V Z f u h h u f Z Z Z k i i h u g 7.t.t.t.k u g d i ' t.t.t.) i Z t.t.n u j J k i q r h ) -.a o ",
"o a } f h <.t.Q i j V u u d s u u n } } { n i h Z i j 7.t.J i k V i Z t.t.t.+.p w w w f ) } } ) g w w w u ' t.t.t.E i j { { h i ' y.-.f w r k +.-.a o ",
"o d ' f h <.w.W u y u y h } +.k y u i i i i r u u r k 7.t.J u u u r V t.w.t.+.d w e e r i i p i u r e w u ' w.w.w.E u u i i u i ' t.*.f w e u j *.a o ",
"o a E f i j k g r w w w n t.p.J r q w q q u h d w w d l l f w w w r Z t.t.y.*.d p k n f r f h y d k k d u h k k k g r f h r w r h l j i i z k U -.a X ",
"o a X.z u y i p i i u r h +.+.k r u i i r d U h w w w r i i i r w r k } +.*.) i h 7.t.U i k S i k 7.w.n r w u i p u r k U i r i i s i r g -.e.e.8.a o ",
"o a -.-.j u k } ' } Z i u s d u u n } ) f r i i e w w u V X.) d w r u d d d i r h 7.t.U u i i y V w.w.V r w d ) } n u u i u h ' ' { U d g -.t.t.8.a o ",
"o a 3.E g i U t.t.y.} p i f y w u ) p.7.h u g k h h d i ' i.8.g u g i u f j g u d n Z h r q q w f V V f w w h w.i.) u w w w n t.y.y.-.g i b F E -.a o ",
"o a X.g w r R t.r.r.' i h U i w y S ,. .g d  .w.7.7.k i E 7.X.d d Q h s } w.} s e r u u r r u u i u u u u e g +.<.S u w w e x 7.w.y.<.f w y u h o.a o ",
"o a X.d q u U t.w.r.} d u d y w e d g d y d  .u.y.t.b r s f f r y d u s *.y.+.d w r k j u z E E Q n u f S p u d f s w w w e n w.y.w.=.f w e j o.7.s o ",
"o a -.b i u k U S U k u i g h h d y u f u d ,.u.y.8.b u s f g g s r w i n Q V u q r k j u U t.t.t.+.i f n i w w s g h h d u f W J Q S i q w h } -.a o ",
"o a 8.3.n r r u d u r e h 7.,.,.} d f W g d  .7.7.3.l i E 7.-.7.J u w y i i y y r u i r u J e.t.t.} p y i u w u S 2.<.<.W i w u i i u y y y u h +.a o ",
"o a *.C d w w i k d w e l w.t.u.*.g u g u e g h g g i i ' y.t.t.Q i g J V d u k U J J h u U y.t.y.+.p d Z J h i W t.t.t.} p q y k g u h J J F ' -.a o ",
"o s } k d d r d S g w e n w.t.u.,.g r d f d e w r d i i ' t.t.t.Q p A t.w.k p ' t.t.y.U u z ) ) ) Z i j w.t.S i U t.t.t.} i q u V h i Q y.w.w.w.8.a o ",
"o a 7.<.=.} f r u u e e k 7.t.w. .g d  .,.S u w d U z i E e.7.e.U i V 7.8.k s ' y.w.e.E u u s i i u e k 7.8.Z i U 7.7.w.( i w y i u u Q y.t.w.y.8.a X ",
"X a 7.t.y.7.g w e g h u d h h k h u h 7.a. .u q r g d r f z h k f r d k k s i ' y.t.y.U u f l k d w w i h k d u d k h k h y d n k f i Q y.t.y.y.3.a o ",
"o a 8.-.{ E d w r k Z u u d p i e w g W { C u r i r e e i d i u y i u w w w i S +.} } k i S t.8.k r i i s d u e u d p u w e l 7.q.V i V +.[ +.-.8.a o ",
"o a *.j d i u w r u i r h } } h e w r d d i r z U i q u Z +.) d d J g w w r y i s p d u u J t.8.k i U +.} } k i n } ) g w e l w.w.V r i s s i k X.a o ",
"o a { d u z z z k i w r Z p.p.S u g h k z f r f h y w i ) i.7.g i k s u h k k h d r f f r g V l s s +.t.t.t.J i U y.t.j w w d n b f e q 0 w d J -.a o ",
"o a { f g -.e.e.*.k w w h } =.k i R r.7.e.' i r d i r u U ,.{ g w r w d } t.w.7.n i V V u w r i r s } t.t.t.S i V =.} h r u u r i i i u y y k <.-.a o ",
"o a X.d g e.t.t.7.j w w i d f u u R u.e.r.' i g R E h r d d d r w w q d } y.t.t.Z u i i w w p Z g d { t.t.t.J u i d d u i Z h i V ' ' ' k u i l $.a o ",
"o d X.d g 7.y.e.t.h u g p w q q u ' u.u.u.E d m u.u.C u d d r d h h u d =.t.t.t.Z u d h h i i k d u k J J S h e 0 w w 0 i l f i ' y.q.y.E r 0 d X.a o ",
"o a X.d g *.7.7.*.h d U k r r r u S 7.,.7.U i k *.,.k i C l i S 7.=.h d ) 7.<.=.n i U 7.=.h r i u u i u y u i u w y y u u i y i ' y.t.t.E u r g X.a o ",
"o a X.d u g g g f u r d i u n h r d g g g d r i g g i e d i u R p.7.h y f g g g i u ) y.7.h i V E U U f u k J S p p V Q U U f i ' y.t.y.E u h { -.a o ",
"X d t.h d w d f d d w w 9 d h h r d g d d y d d r d f f d d d h W U f w w u f f d r h U L d f +.r.r.r.m d W u.7.g f ,.u.r.w.x u l Q Q Q j u h +.7.a X ",
"X d w.w.h d h 1.' h w e r y d y y C :.o.d d h g d ^ 1.1.@.x e y i i u w e k *.*.m r y d u e d %.r.r.7.m i W w. .f f %.r.r.w.m e y i i i y y u h +.s o ",
"o d @.h d d ^ p.w.h d h h W L g d W t.w.g d h d d ^ u.w.w.C y g S n S k u n t.t.L r q d h d d  .p.r.w.m y f h h u f ,.r.r.r.m e w d k i i n A Q <.a o ",
"X d o.f w w h ^ ^ f d o.t.p.a.h d h ' W d q w w d ) u.u.p.C d C t.t.t.} i h ) } h e w f ^ g d L }  .} h r u d e w d W } } } h w w g S d f <.t.t.8.a o ",
"X d R d q w d d d r d o.t.w.w.C r y d y r w w w d ) t.w.w.C d U t.w.t.} i y i i r e w r u e e u i d d e u L x r w e u d i d r w w r i e g *.t.7.<.a o ",
"X 8 d 8 3 2 2 4 9 q d o.p.w.p.C e w 9 3 2 2 5 7 e g C h x g y U t.t.p.} p 7 5 0 w w 7 7 q 9 5 2 7 q w e y g g e 6 3 5 9 9 5 3 5 5 7 w w i k x k f 6 X ",
". $ ; ; ; ; ; 2 q w d W ' o.o.h r w 7 > ; ; ; 5 w w w w w w y h  .*. .U u 5 2 9 w w 3 5 q 2 & ; 5 w w 9 9 w w w 2 ; ; 5 9 , ; ; ; 3 w w q q w 0 < @ . ",
". + % ; & = & < q w w d d d d d w w 7 : % ; ; 6 9 2 , 2 9 w e d d d d p e q 9 w w w q q w 2 ; ; 5 9 2 , < , 5 9 2 % ; 5 9 : & % & 3 q 5 , , 9 9 * + . ",
". @ ; % ; ; % , q 9 7 q w q 4 4 7 q 7 ; ; ; ; 3 9 , % > 7 w 6 9 q q 9 5 5 q w 9 5 5 5 9 q 5 5 3 9 9 : % % ; 2 q 6 3 4 9 9 > ; % = 3 9 < & ; 5 9 : + . ",
". @ ; ; ; ; : 3 q 4 2 q w q , ; , 9 7 , ; ; > 5 9 1 ; < 9 6 2 7 w w 3 ; ; 5 9 < ; ; ; 2 w w 9 w w 9 > ; ; ; 2 q w q q w 9 1 ; : : 4 q 2 ; : 7 9 : + . ",
". @ ; 5 9 7 7 q w q 9 q w q , ; ; 6 w 9 6 7 7 q w 9 7 9 w w 7 q w w 2 & ; 4 9 < & = = 2 q 5 3 w w q , ; ; % 2 w e 9 4 6 q 9 9 9 9 0 w 0 9 9 w 9 : + . ",
". @ ; 5 q w w q 9 7 6 5 q w 4 2 3 9 q 9 7 9 w q 9 w q 6 6 6 7 w e w 6 2 2 9 9 , & & & 2 q 5 5 q w w 3 2 2 , 6 w w 9 5 9 w e 9 6 7 6 9 q w w 9 4 ; + . ",
". + ; : 5 w w 9 > ; ; ; 5 w q w w w 7 , ; 1 q 5 2 q 5 > ; ; , 6 w w q w q w 9 < ; ; ; 2 w q 9 w w w q w w w q w w w q w w w 5 : ; ; , 7 w w 5 : ; + . ",
". + ; 3 9 w w 7 ; ; ; ; 4 q 5 6 w w 6 ; ; , q 9 7 w 5 ; ; = ; 7 q 4 9 e e e w 9 6 5 9 9 w 5 2 2 2 5 q w e w 9 4 9 q 4 2 5 q 4 ; & & ; 9 e w 9 4 ; + . ",
". + ; 5 9 9 w 7 ; % ; ; 5 q 2 5 w w 9 2 < 4 q w w w 3 ; & & ; 7 9 2 9 w 9 9 9 9 q w 9 9 w 2 ; ; ; , 9 e w w 9 2 9 7 ; % < 9 5 ; & & ; 7 w 9 9 5 ; + . ",
". + ; : : , 9 9 ; ; ; ; 4 w w w w w q q q q w w w w 5 ; = ; > 7 w q q 9 < : : : 5 9 5 4 9 2 ; & ; , q w w w w w w 7 : ; < 9 4 ; ; ; > 9 9 , : ; ; @ . ",
". @ ; ; ; ; 5 q 6 5 5 5 9 w w 9 2 2 3 4 q q 3 3 5 q q 5 5 5 5 q w w w 9 , % & % 2 q 9 9 w 2 & & % > 9 9 2 2 6 w w w 6 5 6 w 9 6 5 5 5 q 6 ; & & & @ . ",
". @ ; ; , , 7 w q q q q q q w 5 ; ; ; ; 7 6 > & , q w w q 9 q w w q w 9 , & & ; 3 w w w w 4 , , : 2 q 5 ; ; 2 w w 9 w q 9 9 9 9 w w q w 9 , , : ; + . ",
". + ; 5 q q w 9 2 7 q 2 > 2 q 5 ; & ; ; 7 6 , ; , q w w 3 , 2 9 q 2 6 9 , ; ; ; 3 w w w w q q 9 9 9 w 5 ; ; 2 q 5 3 9 6 , , , 2 9 7 2 9 w 9 q 5 ; + . ",
". + : , 9 w w w 5 9 9 : % : 9 7 ; % & ; 6 q 5 3 5 w w q , % ; 6 q 4 q q 4 2 4 4 9 w w w 5 4 6 w 9 6 w 9 3 5 7 q 6 6 w 2 ; % ; , 9 9 5 q e e e 9 : + . ",
". @ ; : 5 q w w w w 9 1 > 1 9 7 , ; > , 9 r w w w q w q 2 > < 6 w q q q w w w w w w w 6 ; ; < 9 6 2 9 w w w w q q q q 3 ; ; % : 9 e w q w w q 6 : + . ",
". + ; 3 q w w w w w w 9 9 9 w w q 6 9 9 w w w w q 2 5 w q 9 9 q q 2 < 2 q w w w 6 2 9 7 ; ; < q q 9 w w w w 7 2 < 5 q 3 % ; ; > 9 w q 5 5 q 5 , ; @ . ",
". @ : 3 6 6 6 7 w q 7 7 9 w 7 9 w 9 7 5 q w w w q 4 7 w w q 6 w 6 ; % < q q 6 q 9 3 q q 2 2 5 w 9 6 6 6 7 w 6 ; % 1 q 7 2 2 < 3 q e w 5 6 q 7 2 ; + . ",
". @ ; ; ; ; ; 2 q 4 ; : 5 q 2 5 q 2 ; , 6 w w q w q w w w 7 2 6 9 , ; < q 5 2 q w w q q q q q w 5 : ; ; , 9 7 , ; 2 q q q q q q q w w q q q q 6 ; + . ",
". @ ; % % ; ; 1 9 3 ; ; 2 q 9 9 q 1 & ; 5 q 3 2 2 2 6 w w q 9 q w 6 7 9 w q 9 q w w 5 2 2 2 4 q 2 & ; % > 9 q 7 7 9 w 7 2 < 6 q 5 6 q 5 2 2 2 , ; @ . ",
". + % ; ; % ; 1 q 7 1 1 7 w e w w 5 < 2 9 6 ; = ; ; 3 w q 7 9 6 q w q 9 q q 9 6 q q 1 = = = < q 3 ; % ; > 9 w w 9 q q 3 ; ; 5 9 3 6 9 2 ; & & & ; @ . ",
". @ ; ; ; ; ; 2 q w q q w w w w w q q q w 9 > = & ; 4 q 2 ; ; ; 2 q 4 2 q 5 > ; 5 q < & = ; , 9 4 ; ; ; , 9 r w 3 3 q 4 ; ; 5 w q w q < & & ; & & + . ",
". + : 2 5 2 6 9 w w q 5 7 q 5 3 3 2 6 w w 9 > = = % 2 q , ; = = 2 q 9 7 q 3 = ; 3 9 < ; & % < q q 6 5 5 7 q w w 9 7 q 9 5 6 9 w e e q < & & & & ; + . ",
". + > 9 w w q 9 w w q 2 6 q , ; = = 2 q w 9 2 , , , 5 q < = = % 1 q w w w 6 < < 6 q 3 , , , 3 w q q w w w q 9 9 w w w w w 9 9 9 9 q q 5 , , , , & + . ",
". + > 7 w w 4 4 w w w 9 w 9 > ; & ; 1 q w q q q 9 q w q < ; ; ; 2 w w w w q q 9 q w q q q q q w 5 2 q w q 2 , , 9 e w w q 1 > , > 5 w q q 9 q 6 ; + . ",
". + ; 2 7 w 7 7 w 9 4 5 9 9 , ; ; % 2 q 9 6 w 9 5 4 9 q 6 4 5 5 7 q 9 3 5 9 q 6 2 4 5 9 w w w w 9 5 w w q < % ; 7 q 5 9 9 > ; ; & 2 q 7 7 w 7 2 ; @ . ",
". + ; > 5 w w w w 3 ; ; 5 9 2 ; , , 2 w 5 2 q 3 ; ; 3 w q q w w w w 2 ; ; 4 q < = ; ; 2 q w 9 q w w q w q 2 , , 9 9 2 7 9 , % % ; 3 q 3 5 q 5 : ; + . ",
". + ; 5 9 w w e w 3 ; ; 3 w q 9 9 9 q w q 9 w 4 ; ; 5 9 5 5 w w w w 3 ; ; 4 9 , ; % ; , q 5 , , 5 9 3 5 w q 9 q 9 q 9 q 9 , ; & ; 2 w q q w q 5 ; + . ",
". + ; < 5 6 q w w 7 2 3 9 w w 9 7 q q 7 q e w 7 2 2 7 w 5 6 w 7 7 w 7 2 4 7 q , ; ; ; 1 q 2 ; ; 5 q 5 7 w w w w 9 5 6 q q 5 3 3 2 6 w w q 6 6 3 ; + . ",
". # ; ; ; > 7 w w w 9 q q w w 7 , 9 9 , 7 w w q 9 9 q q w w w 2 3 q w q q w 9 2 : > ; 2 q 3 > > 7 q q q q q w q 2 ; ; 6 w w q 9 9 q q w 6 > ; ; & + . ",
". @ ; ; ; ; 7 e w 5 2 , , 3 q q q w w 9 w w w 7 2 2 2 2 9 r w 9 q w w q 3 6 w 9 7 7 7 9 w 9 7 9 q q 3 2 2 1 6 q < ; ; 6 w w 9 2 2 < 3 9 6 ; & & ; @ . ",
". + ; 1 1 2 9 w w 2 ; ; ; > 9 q 7 7 q w w e w 3 % ; ; > 9 w 7 7 9 w w q 4 7 w 9 7 7 q q 7 q w e w 9 > % ; ; 1 9 6 2 2 9 w w 2 ; & & ; 9 9 3 2 < ; + . ",
". + ; 5 q q w w w 3 ; % ; > 9 7 > ; 2 q w w w 4 ; % ; ; 9 7 > ; 2 w w w w w q 2 : , 9 9 2 7 w w w 9 , ; ; % 2 q w q q q w w 3 ; & ; > 7 w q q 6 ; + . ",
". @ ; , 7 w 6 5 q 3 ; % % > 9 7 ; % 2 q 7 7 q 3 ; % ; ; 7 5 ; ; 1 q 7 5 q w 9 , ; ; 7 q 7 q q 3 9 q , ; % ; 2 w w w w 7 5 q 3 ; & & > 7 w w 6 < ; + . ",
". + % ; 1 7 1 , 5 , ; ; ; > 5 3 ; ; , 7 , , 7 2 ; ; ; : 5 2 ; ; , 6 2 > 7 9 6 > % ; 5 9 9 9 5 > 2 6 > % ; ; 2 7 9 9 9 1 , 6 1 ; ; = > 5 9 6 < ; & @ . ",
"  X O % ; : ; ; ; ; ; & ; ; ; ; ; ; ; ; ; ; ; ; % ; ; ; ; ; ; ; ; ; ; ; ; : : ; ; ; ; : > : ; ; ; ; ; ; ; ; ; ; > > : ; ; ; ; ; & = ; ; > : ; % O X   ",
"    X @ @ @ + + + @ + + @ @ O + + + + + + + + + + O @ + + + + O + + + # + + + + O # + + + + O + @ + + + @ @ O + + + + + @ + + + + + + + + + + + X     ",
"      . . . . . . . . . . . . . . . . . . . . . . . . . . . . . . . . . . . . . . . . . . . . . . . . . . . . . . . . . . . . . . . . . . . . .       "
};
